# xmcd
# 
# Track frame offsets:
#     200
#     17472
#     32787
#     56932
#     80577
#     119020
#     140630
#     161747
#     184680
#     201912
# 
# Disc length: 3189
# 
# Revision: 4
# Processed by: cddbd v1.5.2PL0 Copyright (c) Steve Scherf et al.
# Submitted via: BonkEnc v1.0.5
# 
DISCID=900c730a
DTITLE=Robert Earl Keen - Gringo Honeymoon
DYEAR=1994
DGENRE=Country
TTITLE0=Think It Over Time
TTITLE1=Tom Ames' Prayer
TTITLE2=Gringo Honeymoon
TTITLE3=The Raven And The Coyote
TTITLE4=Lonely Feeling
TTITLE5=Merry Christmas From The Family
TTITLE6=Barbeque
TTITLE7=Lynnville Train
TTITLE8=I'm Comin' Home
TTITLE9=Dreadful Selfish Crime
EXTD=
EXTT0=
EXTT1=
EXTT2=
EXTT3=
EXTT4=
EXTT5=
EXTT6=
EXTT7=
EXTT8=
EXTT9=
PLAYORDER=
